<svg width="91" height="108" viewBox="0 0 91 108" fill="none" xmlns="http://www.w3.org/2000/svg">
<path d="M6.80511 34.7032C3.15741 34.7014 0.200912 37.6651 0.200012 41.3101L0.204512 68.9725C0.203921 69.8404 0.374426 70.7 0.706279 71.502C1.03813 72.304 1.52482 73.0327 2.13852 73.6465C2.75221 74.2603 3.48088 74.7471 4.28285 75.079C5.08482 75.411 5.94435 75.5816 6.81231 75.5812C7.68016 75.5821 8.53966 75.4118 9.34158 75.08C10.1435 74.7483 10.8721 74.2615 11.4856 73.6477C12.0991 73.0339 12.5854 72.305 12.9168 71.5029C13.2481 70.7008 13.4179 69.8412 13.4165 68.9734V41.3065C13.4146 39.5543 12.7172 37.8746 11.4775 36.6365C10.2378 35.3983 8.55723 34.7029 6.80511 34.7032ZM60.0779 9.86136L64.6886 1.44186C64.8061 1.22828 64.834 0.976832 64.7664 0.74266C64.6987 0.508487 64.541 0.310698 64.3277 0.19266C64.114 0.077095 63.8633 0.0507507 63.6303 0.119378C63.3973 0.188005 63.2008 0.346031 63.0839 0.55896L58.4264 9.06666C54.5078 7.32246 50.1221 6.34506 45.4817 6.34956C40.8539 6.34506 36.47 7.31976 32.5676 9.05406L27.9047 0.56796C27.8478 0.462033 27.7704 0.368454 27.6771 0.292643C27.5837 0.216832 27.4763 0.160296 27.3609 0.12631C27.2456 0.0923242 27.1246 0.081564 27.0051 0.0946527C26.8855 0.107741 26.7698 0.144419 26.6645 0.20256C26.5582 0.259364 26.4644 0.33679 26.3884 0.430311C26.3124 0.523831 26.2558 0.631567 26.2219 0.747217C26.1881 0.862866 26.1776 0.984106 26.1912 1.10384C26.2047 1.22358 26.242 1.33941 26.3009 1.44456L30.9134 9.85866C21.8504 14.5324 15.7268 23.4334 15.7322 33.6529L75.2384 33.6457C75.2411 23.4298 69.1283 14.5468 60.0779 9.86136ZM31.9475 22.8727C31.2857 22.8723 30.6512 22.6091 30.1835 22.1409C29.7158 21.6727 29.4533 21.0378 29.4536 20.3761C29.454 19.7143 29.7172 19.0797 30.1854 18.612C30.6536 18.1444 31.2884 17.8818 31.9502 17.8822C32.6121 17.8833 33.2465 18.1467 33.7146 18.6147C34.1827 19.0826 34.4463 19.7169 34.4477 20.3788C34.4468 21.041 34.1828 21.6757 33.714 22.1434C33.2451 22.6111 32.6097 22.8734 31.9475 22.8727ZM59.0438 22.8673C58.7162 22.8675 58.3918 22.8032 58.089 22.6779C57.7863 22.5527 57.5112 22.369 57.2795 22.1374C57.0478 21.9058 56.864 21.6308 56.7387 21.3281C56.6133 21.0254 56.5489 20.701 56.549 20.3734C56.5525 19.7121 56.8165 19.0789 57.2836 18.6109C57.7508 18.143 58.3835 17.8779 59.0447 17.8732C59.7054 17.8786 60.3373 18.1442 60.8034 18.6124C61.2696 19.0806 61.5324 19.7136 61.535 20.3743C61.5354 20.7016 61.4712 21.0258 61.3461 21.3283C61.2211 21.6308 61.0376 21.9057 60.8063 22.1372C60.5749 22.3688 60.3001 22.5524 59.9977 22.6777C59.6953 22.803 59.3711 22.8674 59.0438 22.8673ZM15.9752 35.9515L15.9851 78.823C15.984 79.7489 16.1656 80.6659 16.5195 81.5215C16.8734 82.3772 17.3926 83.1546 18.0473 83.8093C18.7021 84.464 19.4796 84.983 20.3353 85.3368C21.1909 85.6906 22.108 85.872 23.0339 85.8709L27.8336 85.8727L27.839 100.51C27.8381 104.155 30.8009 107.118 34.4405 107.118C38.0909 107.118 41.0483 104.153 41.0492 100.506L41.0456 85.8718L49.9637 85.8691L49.9673 100.506C49.9673 104.148 52.931 107.117 56.5715 107.11C60.2219 107.113 63.1811 104.147 63.1802 100.5L63.1757 85.8673L67.9925 85.8637C68.9185 85.8638 69.8355 85.6815 70.6911 85.3272C71.5466 84.973 72.3241 84.4537 72.9789 83.799C73.6338 83.1442 74.1533 82.367 74.5078 81.5115C74.8623 80.656 75.0448 79.7391 75.0449 78.8131L75.0368 35.9416L15.9752 35.9515ZM90.7958 41.3002C90.7959 40.4326 90.6251 39.5735 90.2931 38.7719C89.9611 37.9704 89.4744 37.2421 88.8608 36.6287C88.2473 36.0154 87.5189 35.5289 86.7173 35.1971C85.9156 34.8653 85.0565 34.6947 84.1889 34.6951C80.5412 34.6915 77.5856 37.6534 77.5856 41.3029L77.591 68.9671C77.5904 69.8346 77.7609 70.6938 78.0926 71.4954C78.4243 72.2971 78.9108 73.0254 79.5243 73.6389C80.1377 74.2523 80.8661 74.7389 81.6677 75.0706C82.4694 75.4023 83.3286 75.5728 84.1961 75.5722C85.0638 75.5723 85.923 75.4014 86.7246 75.0693C87.5262 74.7371 88.2545 74.2503 88.8678 73.6365C89.4812 73.0228 89.9675 72.2941 90.2991 71.4923C90.6307 70.6905 90.801 69.8311 90.8003 68.9635L90.7958 41.3002Z" fill="#A4C439"/>
</svg>
