<svg width="106" height="106" viewBox="0 0 106 106" fill="none" xmlns="http://www.w3.org/2000/svg">
<g clip-path="url(#clip0_245_273)">
<path d="M90.0503 0.100006H16.5503C7.85181 0.100006 0.800293 7.15152 0.800293 15.85V89.35C0.800293 98.0485 7.85181 105.1 16.5503 105.1H90.0503C98.7488 105.1 105.8 98.0485 105.8 89.35V15.85C105.8 7.15152 98.7488 0.100006 90.0503 0.100006Z" fill="#F7DF1E"/>
<path d="M67.2456 75.9789C69.2964 79.4652 72.1675 81.9262 76.8843 81.9262C80.9858 81.9262 83.6519 79.8754 83.6519 77.0043C83.6519 73.7231 80.9858 72.4926 76.4741 70.4418L74.0132 69.4164C66.8354 66.3402 62.1187 62.6488 62.1187 54.6508C62.1187 47.268 67.6558 41.5258 76.4741 41.5258C82.8315 41.5258 87.3433 43.7816 90.4194 49.5238L82.8315 54.4457C81.1909 51.3695 79.3452 50.1391 76.4741 50.1391C73.603 50.1391 71.7573 51.9848 71.7573 54.4457C71.7573 57.3168 73.603 58.5473 77.9097 60.393L80.3706 61.4184C88.7788 65.1098 93.4956 68.5961 93.4956 77.0043C93.4956 85.8227 86.5229 90.7445 77.0894 90.7445C67.8608 90.7445 61.9136 86.4379 59.0425 80.6957L67.2456 75.9789ZM32.3823 76.7992C34.0229 79.4652 35.2534 81.9262 38.7397 81.9262C42.021 81.9262 44.0718 80.6957 44.0718 75.7738V41.7309H53.9155V75.3637C53.9155 85.6176 47.9683 90.1293 39.1499 90.1293C31.1519 90.1293 26.6401 86.0277 24.3843 81.1059L32.3823 76.7992Z" fill="black"/>
</g>
<defs>
<clipPath id="clip0_245_273">
<rect width="105" height="105" fill="white" transform="translate(0.800293 0.100006)"/>
</clipPath>
</defs>
</svg>
