<svg width="179" height="101" viewBox="0 0 179 101" fill="none" xmlns="http://www.w3.org/2000/svg">
<g clip-path="url(#clip0_245_268)">
<path d="M42.8008 26.6716H76.3732V29.1556H45.8783V47.8504H74.5547V50.3343H45.8783V70.8595H76.7229V73.3434H42.8008V26.6716ZM79.3808 26.6716H82.9478L98.7549 47.1968L114.912 26.6716L136.887 0.600006L100.783 49.3538L119.388 73.3434H115.681L98.7549 51.5109L81.7588 73.3434H78.1218L96.8664 49.3538L79.3808 26.6716ZM120.717 29.1556V26.6716H158.975V29.1556H141.35V73.3434H138.272V29.1556H120.717ZM0.800293 26.6716H4.64713L57.6928 100.562L35.7716 73.3434L4.01765 30.2014L3.87777 73.3434H0.800293V26.6716ZM158.665 70.1099C158.037 70.1099 157.565 69.6564 157.565 69.0703C157.565 68.4843 158.037 68.0308 158.665 68.0308C159.302 68.0308 159.766 68.4843 159.766 69.0703C159.766 69.6564 159.302 70.1099 158.665 70.1099ZM161.689 67.375H163.336C163.358 68.2052 164.01 68.7634 164.968 68.7634C166.038 68.7634 166.644 68.1633 166.644 67.0401V59.9238H168.321V67.0471C168.321 69.0703 167.064 70.2355 164.983 70.2355C163.029 70.2355 161.689 69.1052 161.689 67.375ZM170.514 67.2843H172.176C172.318 68.2401 173.321 68.8471 174.766 68.8471C176.113 68.8471 177.101 68.1982 177.101 67.3052C177.101 66.5378 176.472 66.0773 175.043 65.7633L173.651 65.4494C171.697 65.0238 170.806 64.1447 170.806 62.6656C170.806 60.8726 172.378 59.6796 174.736 59.6796C176.929 59.6796 178.531 60.8726 178.628 62.568H176.996C176.839 61.64 175.971 61.061 174.713 61.061C173.389 61.061 172.505 61.654 172.505 62.561C172.505 63.2796 173.074 63.6912 174.481 63.9982L175.672 64.2703C177.887 64.7517 178.8 65.5889 178.8 67.1029C178.8 69.0285 177.198 70.2355 174.639 70.2355C172.243 70.2355 170.634 69.0843 170.514 67.2843Z" fill="black"/>
</g>
<defs>
<clipPath id="clip0_245_268">
<rect width="178" height="100" fill="white" transform="translate(0.800293 0.600006)"/>
</clipPath>
</defs>
</svg>
