<svg width="42" height="79" viewBox="0 0 42 79" fill="none" xmlns="http://www.w3.org/2000/svg">
<path d="M5.96011 78.0535C4.56997 78.056 3.22275 77.6087 2.15234 76.7892C1.54989 76.3277 1.05189 75.761 0.686872 75.1214C0.321849 74.4819 0.096975 73.7821 0.0251279 73.0621C-0.0467192 72.3422 0.0358738 71.6162 0.268175 70.9258C0.500475 70.2353 0.877915 69.594 1.37889 69.0386L28.0333 39.5754L2.33083 10.0572C1.83662 9.49499 1.46755 8.84803 1.24485 8.15356C1.02214 7.45909 0.95019 6.7308 1.03312 6.01055C1.11606 5.29031 1.35224 4.59231 1.7281 3.95667C2.10396 3.32103 2.61209 2.76029 3.22328 2.30667C3.83886 1.80625 4.55976 1.4288 5.34072 1.19799C6.12168 0.967182 6.94586 0.888007 7.76151 0.96543C8.57717 1.04285 9.3667 1.2752 10.0805 1.6479C10.7944 2.0206 11.4172 2.52559 11.9098 3.1312L40.6465 36.1124C41.5216 37.096 42 38.3297 42 39.6029C42 40.8761 41.5216 42.1098 40.6465 43.0934L10.8983 76.0746C10.3015 76.7398 9.54328 77.2656 8.68528 77.6095C7.82729 77.9533 6.89365 78.1054 5.96011 78.0535Z" fill="#231F20"/>
</svg>
