<svg width="67" height="68" viewBox="0 0 67 68" fill="none" xmlns="http://www.w3.org/2000/svg">
<rect width="47.3001" height="47.4509" rx="10" transform="matrix(0.705248 -0.708961 0.705248 0.708961 0 33.5339)" fill="#002838"/>
<path d="M16.7775 31.8274H9.38098C9.56138 30.7393 9.56138 30.558 10.1026 29.2885C10.5356 28.2729 11.7262 26.9309 12.2674 26.3869L27.6017 11.6973C28.9006 10.5366 30.7888 10.0046 31.5706 9.88373V17.3192C31.5706 17.4643 21.7085 27.0518 16.7775 31.8274Z" fill="#8AE7DC"/>
<path d="M49.9717 31.9182H57.5486C57.3638 30.821 57.3638 30.6382 56.8094 29.3582C56.3659 28.3343 55.1462 26.9812 54.5918 26.4326L38.8835 11.6216C37.5529 10.4514 35.6186 9.91499 34.8178 9.79309V17.29C34.8178 17.4363 44.9204 27.1031 49.9717 31.9182Z" fill="#17C4D2"/>
<path d="M16.9579 35.1825H9.5614C9.7418 36.2706 9.7418 36.452 10.283 37.7214C10.716 38.737 11.9066 40.079 12.4479 40.6231L27.7821 55.3127C29.081 56.4733 30.9693 57.0053 31.751 57.1262V49.6907C31.751 49.5457 21.889 39.9581 16.9579 35.1825Z" fill="#FE9B02"/>
<path d="M49.9116 35.2732H57.3683C57.1864 36.3523 57.1864 36.5321 56.6408 37.7911C56.2043 38.7983 55.0039 40.1292 54.4583 40.6688L38.9994 55.237C37.6899 56.388 35.7863 56.9156 34.9982 57.0355V49.6615C34.9982 49.5176 44.9405 40.0093 49.9116 35.2732Z" fill="#FF9702"/>
<ellipse cx="33.7354" cy="32.4622" rx="8.47896" ry="8.52359" fill="#AB251C"/>
<path fill-rule="evenodd" clip-rule="evenodd" d="M32.8336 37.3587C37.0183 37.3587 40.4106 33.9485 40.4106 29.7419C40.4106 28.504 40.1168 27.3352 39.5956 26.3019C38.0731 24.8379 36.0088 23.9386 33.7356 23.9386C29.5268 23.9386 26.0342 27.0214 25.3703 31.0633C25.9926 34.6401 29.0973 37.3587 32.8336 37.3587Z" fill="#FD5030"/>
</svg>
