<svg width="106" height="106" viewBox="0 0 106 106" fill="none" xmlns="http://www.w3.org/2000/svg">
<path d="M53.3006 61.8895C58.479 61.8895 62.6769 57.6916 62.6769 52.5132C62.6769 47.3349 58.479 43.137 53.3006 43.137C48.1223 43.137 43.9244 47.3349 43.9244 52.5132C43.9244 57.6916 48.1223 61.8895 53.3006 61.8895Z" fill="#00D8FF"/>
<path fill-rule="evenodd" clip-rule="evenodd" d="M53.3008 33.4494C65.8897 33.4494 77.5844 35.2558 86.4021 38.2915C97.0263 41.9491 103.558 47.4931 103.558 52.5132C103.558 57.7446 96.6357 63.6343 85.2267 67.4144C76.6013 70.2721 65.2509 71.7639 53.3008 71.7639C41.0488 71.7639 29.4468 70.3637 20.7242 67.383C9.68848 63.611 3.04156 57.6449 3.04156 52.5132C3.04156 47.5338 9.27842 42.0326 19.7532 38.3806C28.6039 35.2949 40.5873 33.4494 53.2992 33.4494H53.3008Z" stroke="#00D8FF" stroke-width="2.73408"/>
<path fill-rule="evenodd" clip-rule="evenodd" d="M36.7053 43.0363C42.9944 32.131 50.4013 22.9027 57.4362 16.7806C65.9121 9.40437 73.9782 6.51564 78.3268 9.02328C82.8587 11.6367 84.5023 20.5763 82.0773 32.3477C80.2457 41.2475 75.8659 51.8249 69.8959 62.1769C63.7749 72.7906 56.7662 82.1415 49.8271 88.2068C41.0466 95.8824 32.5576 98.6601 28.1122 96.0964C23.7985 93.6107 22.1489 85.4581 24.2183 74.5594C25.9667 65.3508 30.3546 54.0481 36.7032 43.0361L36.7053 43.0363Z" stroke="#00D8FF" stroke-width="2.73408"/>
<path fill-rule="evenodd" clip-rule="evenodd" d="M36.7209 62.2047C30.414 51.3118 26.12 40.2838 24.3276 31.1317C22.17 20.1046 23.6955 11.6735 28.0402 9.15861C32.5677 6.53752 41.1335 9.57801 50.1206 17.5579C56.9155 23.591 63.8928 32.6663 69.8802 43.0086C76.0187 53.612 80.6195 64.3545 82.4092 73.3952C84.6739 84.8359 82.841 93.5774 78.3997 96.1484C74.0903 98.6431 66.2044 96.0019 57.7958 88.7659C50.6912 82.6524 43.0901 73.2059 36.7209 62.2046V62.2047Z" stroke="#00D8FF" stroke-width="2.73408"/>
</svg>
