<svg width="106" height="106" viewBox="0 0 106 106" fill="none" xmlns="http://www.w3.org/2000/svg">
<path d="M30.3315 45.0531C33.394 32.8031 41.0503 26.6781 53.3003 26.6781C71.6753 26.6781 73.9722 40.4594 83.1597 42.7563C89.2847 44.2875 94.644 41.9906 99.2378 35.8656C96.1753 48.1156 88.519 54.2406 76.269 54.2406C57.894 54.2406 55.5972 40.4594 46.4097 38.1625C40.2847 36.6313 34.9253 38.9281 30.3315 45.0531ZM7.36279 72.6156C10.4253 60.3656 18.0815 54.2406 30.3315 54.2406C48.7065 54.2406 51.0034 68.0219 60.1909 70.3188C66.3159 71.85 71.6753 69.5531 76.269 63.4281C73.2065 75.6781 65.5503 81.8031 53.3003 81.8031C34.9253 81.8031 32.6284 68.0219 23.4409 65.725C17.3159 64.1938 11.9565 66.4906 7.36279 72.6156Z" fill="#44A8B3"/>
</svg>
